<svg xmlns="http://www.w3.org/2000/svg" viewBox="0 0 400 500" width="400" height="500">
  <!-- Background -->
  <rect width="400" height="500" fill="#FAF7F2"/>
  
  <!-- Decorative Elements -->
  <circle cx="350" cy="80" r="75" fill="#F5F0E8" opacity="0.6"/>
  <circle cx="60" cy="420" r="80" fill="#F5F0E8" opacity="0.6"/>
  
  <!-- Minimalist Illustration - Dough Bowl -->
  <ellipse cx="200" cy="240" rx="110" ry="100" fill="#E8DCC8" opacity="0.7"/>
  <ellipse cx="200" cy="240" rx="95" ry="85" fill="#F5E6D3" opacity="0.8"/>
  <ellipse cx="200" cy="240" rx="80" ry="70" fill="#FFF8E7"/>
  
  <!-- Dough texture -->
  <path d="M 150 230 Q 180 220 200 225 T 250 230" stroke="#D4A574" stroke-width="2" fill="none" opacity="0.3"/>
  <path d="M 160 250 Q 180 245 200 248 T 240 250" stroke="#D4A574" stroke-width="2" fill="none" opacity="0.3"/>
  
  <!-- Subtle dots -->
  <circle cx="175" cy="235" r="2.5" fill="#D4A574" opacity="0.3"/>
  <circle cx="225" cy="240" r="2" fill="#D4A574" opacity="0.3"/>
  <circle cx="195" cy="255" r="2.5" fill="#D4A574" opacity="0.3"/>
  
  <!-- Product Name -->
  <text x="200" y="370" font-family="Playfair Display, serif" font-size="30" font-weight="600" fill="#2C1810" text-anchor="middle">
    Massa Pão de Queijo
  </text>
  
  <!-- Weight Badge -->
  <rect x="140" y="400" width="120" height="40" rx="20" fill="#2C1810"/>
  <text x="200" y="427" font-family="system-ui, sans-serif" font-size="18" font-weight="500" fill="#FAF7F2" text-anchor="middle">
    1kg
  </text>
  
  <!-- Category Badge -->
  <rect x="120" y="450" width="160" height="28" rx="14" fill="#D4A574" opacity="0.2"/>
  <text x="200" y="470" font-family="system-ui, sans-serif" font-size="14" font-weight="500" fill="#2C1810" text-anchor="middle">
    Refrigerado
  </text>
</svg>
