<svg xmlns="http://www.w3.org/2000/svg" viewBox="0 0 400 500" width="400" height="500">
  <!-- Background -->
  <rect width="400" height="500" fill="#F5F0E8"/>
  
  <!-- Decorative Elements -->
  <circle cx="90" cy="90" r="80" fill="#FAF7F2" opacity="0.7"/>
  <circle cx="310" cy="410" r="85" fill="#FAF7F2" opacity="0.7"/>
  
  <!-- Minimalist Illustration - Large Dough Bowl -->
  <ellipse cx="200" cy="230" rx="130" ry="115" fill="#E8DCC8" opacity="0.7"/>
  <ellipse cx="200" cy="230" rx="115" ry="100" fill="#F5E6D3" opacity="0.8"/>
  <ellipse cx="200" cy="230" rx="95" ry="80" fill="#FFF8E7"/>
  
  <!-- Dough texture - more elaborate for 4kg -->
  <path d="M 140 220 Q 170 210 200 215 T 260 220" stroke="#D4A574" stroke-width="2.5" fill="none" opacity="0.3"/>
  <path d="M 145 235 Q 175 228 200 232 T 255 235" stroke="#D4A574" stroke-width="2" fill="none" opacity="0.3"/>
  <path d="M 150 250 Q 175 245 200 248 T 250 250" stroke="#D4A574" stroke-width="2" fill="none" opacity="0.3"/>
  
  <!-- Subtle dots -->
  <circle cx="165" cy="225" r="3" fill="#D4A574" opacity="0.3"/>
  <circle cx="235" cy="230" r="2.5" fill="#D4A574" opacity="0.3"/>
  <circle cx="190" cy="245" r="2.5" fill="#D4A574" opacity="0.3"/>
  <circle cx="215" cy="238" r="2" fill="#D4A574" opacity="0.3"/>
  
  <!-- Product Name -->
  <text x="200" y="370" font-family="Playfair Display, serif" font-size="30" font-weight="600" fill="#2C1810" text-anchor="middle">
    Massa Pão de Queijo
  </text>
  
  <!-- Weight Badge -->
  <rect x="140" y="400" width="120" height="40" rx="20" fill="#2C1810"/>
  <text x="200" y="427" font-family="system-ui, sans-serif" font-size="18" font-weight="500" fill="#FAF7F2" text-anchor="middle">
    4kg
  </text>
  
  <!-- Category Badge -->
  <rect x="120" y="450" width="160" height="28" rx="14" fill="#D4A574" opacity="0.2"/>
  <text x="200" y="470" font-family="system-ui, sans-serif" font-size="14" font-weight="500" fill="#2C1810" text-anchor="middle">
    Refrigerado
  </text>
</svg>
