<svg xmlns="http://www.w3.org/2000/svg" viewBox="0 0 400 500" width="400" height="500">
  <!-- Background -->
  <rect width="400" height="500" fill="#F5F0E8"/>
  
  <!-- Decorative Elements -->
  <circle cx="100" cy="120" r="85" fill="#FAF7F2" opacity="0.7"/>
  <circle cx="300" cy="380" r="70" fill="#FAF7F2" opacity="0.7"/>
  
  <!-- Minimalist Illustration - Larger Cheese Bread Balls -->
  <g transform="translate(200, 210)">
    <!-- Ball 1 (back left) -->
    <circle cx="-50" cy="-30" r="42" fill="#E8DCC8" opacity="0.7"/>
    <circle cx="-50" cy="-30" r="37" fill="#F5E6D3" opacity="0.8"/>
    
    <!-- Ball 2 (back right) -->
    <circle cx="45" cy="-25" r="45" fill="#E8DCC8" opacity="0.7"/>
    <circle cx="45" cy="-25" r="40" fill="#F5E6D3" opacity="0.8"/>
    
    <!-- Ball 3 (front left) -->
    <circle cx="-25" cy="35" r="48" fill="#FFF8E7"/>
    <circle cx="-25" cy="35" r="43" fill="#F5E6D3" opacity="0.5"/>
    
    <!-- Ball 4 (front right) -->
    <circle cx="30" cy="40" r="50" fill="#FFF8E7"/>
    <circle cx="30" cy="40" r="45" fill="#F5E6D3" opacity="0.5"/>
    
    <!-- Texture dots -->
    <circle cx="25" cy="35" r="2.5" fill="#D4A574" opacity="0.3"/>
    <circle cx="35" cy="48" r="2" fill="#D4A574" opacity="0.3"/>
    <circle cx="-20" cy="42" r="2.5" fill="#D4A574" opacity="0.3"/>
  </g>
  
  <!-- Product Name -->
  <text x="200" y="370" font-family="Playfair Display, serif" font-size="30" font-weight="600" fill="#2C1810" text-anchor="middle">
    Pão de Queijo
  </text>
  <text x="200" y="400" font-family="Playfair Display, serif" font-size="30" font-weight="600" fill="#2C1810" text-anchor="middle">
    Congelado
  </text>
  
  <!-- Weight Badge -->
  <rect x="140" y="420" width="120" height="40" rx="20" fill="#2C1810"/>
  <text x="200" y="447" font-family="system-ui, sans-serif" font-size="18" font-weight="500" fill="#FAF7F2" text-anchor="middle">
    2kg
  </text>
  
  <!-- Category Badge -->
  <rect x="130" y="470" width="140" height="28" rx="14" fill="#D4A574" opacity="0.2"/>
  <text x="200" y="490" font-family="system-ui, sans-serif" font-size="14" font-weight="500" fill="#2C1810" text-anchor="middle">
    Congelado
  </text>
</svg>
